<svg xmlns="http://www.w3.org/2000/svg" width="1180" height="862" viewBox="0 0 1180 862"><rect x="0.0" y="0.0" width="1180.0" height="862.0" rx="0" fill="#FFFFFF" stroke="none" stroke-width="0"/><text x="590.0" y="28.0" font-family="Arial, Helvetica, sans-serif" font-size="16" font-weight="bold" fill="#111111" text-anchor="middle">Figure 3.1  Layered System Architecture of SYNAPSE</text><text x="590.0" y="46.0" font-family="Arial, Helvetica, sans-serif" font-size="11" font-weight="normal" fill="#5A5A5A" text-anchor="middle">Presentation - Application - Data &amp; Intelligence; trust flows downward, never sideways</text><rect x="30.0" y="66.0" width="880.0" height="748.0" rx="8" fill="#FFFFFF" stroke="#111111" stroke-width="1.4" stroke-dasharray="6 4"/><text x="44.0" y="86.0" font-family="Arial, Helvetica, sans-serif" font-size="9.5" font-weight="bold" fill="#5A5A5A" text-anchor="start">INSTITUTION INFRASTRUCTURE  (self-hosted / single VPS)</text><text x="1050.0" y="90.0" font-family="Arial, Helvetica, sans-serif" font-size="9.5" font-weight="bold" fill="#5A5A5A" text-anchor="middle">EXTERNAL</text><rect x="52.0" y="100.0" width="838.0" height="132.0" rx="4" fill="#F4F4F4" stroke="#111111" stroke-width="1.4"/><text x="62.0" y="116.0" font-family="Arial, Helvetica, sans-serif" font-size="9.5" font-weight="bold" fill="#5A5A5A" text-anchor="start">PRESENTATION LAYER</text><rect x="80.0" y="132.0" width="240.0" height="82.0" rx="3" fill="#FFFFFF" stroke="#111111" stroke-width="1.4"/><text x="200.0" y="163.8" font-family="Arial, Helvetica, sans-serif" font-size="11" font-weight="normal" fill="#111111" text-anchor="middle">Web Client</text><text x="200.0" y="176.8" font-family="Arial, Helvetica, sans-serif" font-size="9.5" font-weight="normal" fill="#5A5A5A" text-anchor="middle">React 19 + TypeScript</text><text x="200.0" y="189.8" font-family="Arial, Helvetica, sans-serif" font-size="9.5" font-weight="normal" fill="#5A5A5A" text-anchor="middle">Inertia.js SPA - 53 pages</text><rect x="350.0" y="132.0" width="230.0" height="82.0" rx="3" fill="#FFFFFF" stroke="#111111" stroke-width="1.4"/><text x="465.0" y="163.8" font-family="Arial, Helvetica, sans-serif" font-size="11" font-weight="normal" fill="#111111" text-anchor="middle">Mobile Companion</text><text x="465.0" y="176.8" font-family="Arial, Helvetica, sans-serif" font-size="9.5" font-weight="normal" fill="#5A5A5A" text-anchor="middle">Expo / React Native</text><text x="465.0" y="189.8" font-family="Arial, Helvetica, sans-serif" font-size="9.5" font-weight="normal" fill="#5A5A5A" text-anchor="middle">Employee self-service</text><rect x="610.0" y="132.0" width="250.0" height="82.0" rx="3" fill="#FFFFFF" stroke="#111111" stroke-width="1.4"/><text x="735.0" y="163.8" font-family="Arial, Helvetica, sans-serif" font-size="11" font-weight="normal" fill="#111111" text-anchor="middle">Public Careers Page</text><text x="735.0" y="176.8" font-family="Arial, Helvetica, sans-serif" font-size="9.5" font-weight="normal" fill="#5A5A5A" text-anchor="middle">Unauthenticated route</text><text x="735.0" y="189.8" font-family="Arial, Helvetica, sans-serif" font-size="9.5" font-weight="normal" fill="#5A5A5A" text-anchor="middle">/careers/{org-slug}</text><rect x="52.0" y="262.0" width="838.0" height="300.0" rx="4" fill="#F4F4F4" stroke="#111111" stroke-width="1.4"/><text x="62.0" y="278.0" font-family="Arial, Helvetica, sans-serif" font-size="9.5" font-weight="bold" fill="#5A5A5A" text-anchor="start">APPLICATION LAYER  -  Laravel 13 / PHP 8.3  (single process, single trust context)</text><rect x="80.0" y="296.0" width="780.0" height="62.0" rx="3" fill="#E4E4E4" stroke="#111111" stroke-width="1.4"/><text x="470.0" y="324.4" font-family="Arial, Helvetica, sans-serif" font-size="11" font-weight="normal" fill="#111111" text-anchor="middle">SECURITY &amp; TENANCY GATE</text><text x="470.0" y="337.4" font-family="Arial, Helvetica, sans-serif" font-size="9.5" font-weight="normal" fill="#5A5A5A" text-anchor="middle">Fortify + 2FA/passkeys  |  Sanctum tokens  |  SetCurrentOrganization  |  OrganizationScope  |  73 permission gates  |  ActivityLogger</text><rect x="80.0" y="382.0" width="470.0" height="160.0" rx="3" fill="#FFFFFF" stroke="#111111" stroke-width="1.4"/><text x="315.0" y="433.4" font-family="Arial, Helvetica, sans-serif" font-size="11" font-weight="normal" fill="#111111" text-anchor="middle">HR MODULES</text><text x="315.0" y="446.4" font-family="Arial, Helvetica, sans-serif" font-size="9.5" font-weight="normal" fill="#5A5A5A" text-anchor="middle">Recruitment - Onboarding - Employees (201)</text><text x="315.0" y="459.4" font-family="Arial, Helvetica, sans-serif" font-size="9.5" font-weight="normal" fill="#5A5A5A" text-anchor="middle">Attendance - Leave - Performance</text><text x="315.0" y="472.4" font-family="Arial, Helvetica, sans-serif" font-size="9.5" font-weight="normal" fill="#5A5A5A" text-anchor="middle">Training - Awards - Events - Offboarding</text><text x="315.0" y="485.4" font-family="Arial, Helvetica, sans-serif" font-size="9.5" font-weight="normal" fill="#5A5A5A" text-anchor="middle">Company Setup - System Administration</text><text x="315.0" y="498.4" font-family="Arial, Helvetica, sans-serif" font-size="9.5" font-weight="normal" fill="#5A5A5A" text-anchor="middle">Dashboard - Reports</text><rect x="578.0" y="382.0" width="282.0" height="160.0" rx="3" fill="#FFFFFF" stroke="#111111" stroke-width="1.4"/><text x="719.0" y="433.4" font-family="Arial, Helvetica, sans-serif" font-size="11" font-weight="normal" fill="#111111" text-anchor="middle">DECISION-SUPPORT SERVICES</text><text x="719.0" y="446.4" font-family="Arial, Helvetica, sans-serif" font-size="9.5" font-weight="normal" fill="#5A5A5A" text-anchor="middle">ApplicantScorer - PerformanceScorer</text><text x="719.0" y="459.4" font-family="Arial, Helvetica, sans-serif" font-size="9.5" font-weight="normal" fill="#5A5A5A" text-anchor="middle">AwardNominator - PipelineInsights</text><text x="719.0" y="472.4" font-family="Arial, Helvetica, sans-serif" font-size="9.5" font-weight="normal" fill="#5A5A5A" text-anchor="middle">AttendanceCalculator - LeaveCalculator</text><text x="719.0" y="485.4" font-family="Arial, Helvetica, sans-serif" font-size="9.5" font-weight="normal" fill="#5A5A5A" text-anchor="middle">MlClient - Assessors - GeminiClient</text><text x="719.0" y="498.4" font-family="Arial, Helvetica, sans-serif" font-size="9.5" font-weight="normal" fill="#5A5A5A" text-anchor="middle">Assistant (56 permission-scoped tools)</text><rect x="52.0" y="592.0" width="838.0" height="200.0" rx="4" fill="#F4F4F4" stroke="#111111" stroke-width="1.4"/><text x="62.0" y="608.0" font-family="Arial, Helvetica, sans-serif" font-size="9.5" font-weight="bold" fill="#5A5A5A" text-anchor="start">DATA &amp; INTELLIGENCE LAYER</text><path d="M 90.0 639.0 V 759.0 A 125.0 9.0 0 0 0 340.0 759.0 V 639.0 A 125.0 9.0 0 0 0 90.0 639.0 Z" fill="#F4F4F4" stroke="#111111" stroke-width="1.4"/><path d="M 90.0 639.0 A 125.0 9.0 0 0 0 340.0 639.0" fill="none" stroke="#111111" stroke-width="1.4"/><text x="215.0" y="687.9" font-family="Arial, Helvetica, sans-serif" font-size="11" font-weight="normal" fill="#111111" text-anchor="middle">PostgreSQL 16</text><text x="215.0" y="700.9" font-family="Arial, Helvetica, sans-serif" font-size="9.5" font-weight="normal" fill="#5A5A5A" text-anchor="middle">69 tables, row-level</text><text x="215.0" y="713.9" font-family="Arial, Helvetica, sans-serif" font-size="9.5" font-weight="normal" fill="#5A5A5A" text-anchor="middle">multi-tenancy</text><text x="215.0" y="726.9" font-family="Arial, Helvetica, sans-serif" font-size="9.5" font-weight="normal" fill="#5A5A5A" text-anchor="middle">encrypted gov IDs</text><rect x="366.0" y="630.0" width="200.0" height="138.0" rx="3" fill="#FFFFFF" stroke="#111111" stroke-width="1.4"/><text x="466.0" y="683.4" font-family="Arial, Helvetica, sans-serif" font-size="11" font-weight="normal" fill="#111111" text-anchor="middle">Private File Store</text><text x="466.0" y="696.4" font-family="Arial, Helvetica, sans-serif" font-size="9.5" font-weight="normal" fill="#5A5A5A" text-anchor="middle">resumes - 201 documents</text><text x="466.0" y="709.4" font-family="Arial, Helvetica, sans-serif" font-size="9.5" font-weight="normal" fill="#5A5A5A" text-anchor="middle">certifications - selfies</text><text x="466.0" y="722.4" font-family="Arial, Helvetica, sans-serif" font-size="9.5" font-weight="normal" fill="#5A5A5A" text-anchor="middle">routed + access-logged</text><rect x="592.0" y="630.0" width="268.0" height="138.0" rx="3" fill="#FFFFFF" stroke="#111111" stroke-width="1.4"/><text x="726.0" y="676.9" font-family="Arial, Helvetica, sans-serif" font-size="11" font-weight="normal" fill="#111111" text-anchor="middle">ML Inference Service</text><text x="726.0" y="689.9" font-family="Arial, Helvetica, sans-serif" font-size="9.5" font-weight="normal" fill="#5A5A5A" text-anchor="middle">FastAPI + Uvicorn (Python)</text><text x="726.0" y="702.9" font-family="Arial, Helvetica, sans-serif" font-size="9.5" font-weight="normal" fill="#5A5A5A" text-anchor="middle">3 scikit-learn pipelines</text><text x="726.0" y="715.9" font-family="Arial, Helvetica, sans-serif" font-size="9.5" font-weight="normal" fill="#5A5A5A" text-anchor="middle">GET /health</text><text x="726.0" y="728.9" font-family="Arial, Helvetica, sans-serif" font-size="9.5" font-weight="normal" fill="#5A5A5A" text-anchor="middle">POST /predict/{model}</text><rect x="950.0" y="382.0" width="200.0" height="160.0" rx="3" fill="#FFFFFF" stroke="#111111" stroke-width="1.4" stroke-dasharray="6 4"/><text x="1050.0" y="439.9" font-family="Arial, Helvetica, sans-serif" font-size="11" font-weight="normal" fill="#111111" text-anchor="middle">Google Gemini API</text><text x="1050.0" y="452.9" font-family="Arial, Helvetica, sans-serif" font-size="9.5" font-weight="normal" fill="#5A5A5A" text-anchor="middle">gemini-2.5-flash</text><text x="1050.0" y="465.9" font-family="Arial, Helvetica, sans-serif" font-size="9.5" font-weight="normal" fill="#5A5A5A" text-anchor="middle">temperature 0.2</text><text x="1050.0" y="478.9" font-family="Arial, Helvetica, sans-serif" font-size="9.5" font-weight="normal" fill="#5A5A5A" text-anchor="middle">function calling +</text><text x="1050.0" y="491.9" font-family="Arial, Helvetica, sans-serif" font-size="9.5" font-weight="normal" fill="#5A5A5A" text-anchor="middle">native document reading</text><rect x="950.0" y="630.0" width="200.0" height="90.0" rx="3" fill="#FFFFFF" stroke="#111111" stroke-width="1.4" stroke-dasharray="6 4"/><text x="1050.0" y="665.9" font-family="Arial, Helvetica, sans-serif" font-size="11" font-weight="normal" fill="#111111" text-anchor="middle">SMTP / Web Push (VAPID)</text><text x="1050.0" y="678.9" font-family="Arial, Helvetica, sans-serif" font-size="9.5" font-weight="normal" fill="#5A5A5A" text-anchor="middle">outbound notification</text><text x="1050.0" y="691.9" font-family="Arial, Helvetica, sans-serif" font-size="9.5" font-weight="normal" fill="#5A5A5A" text-anchor="middle">transports</text><path d="M 120.0 214.0 L 120.0 255.0 L 390.0 255.0 L 390.0 296.0" fill="none" stroke="#111111" stroke-width="1.4"/><polygon points="390.0,296.0 384.6,287.0 395.4,287.0" fill="#111111" stroke="none" stroke-width="1.4"/><polygon points="120.0,214.0 125.4,223.0 114.6,223.0" fill="#111111" stroke="none" stroke-width="1.4"/><path d="M 465.0 214.0 L 465.0 255.0 L 470.0 255.0 L 470.0 296.0" fill="none" stroke="#111111" stroke-width="1.4"/><polygon points="470.0,296.0 464.6,287.0 475.4,287.0" fill="#111111" stroke="none" stroke-width="1.4"/><polygon points="465.0,214.0 470.4,223.0 459.6,223.0" fill="#111111" stroke="none" stroke-width="1.4"/><path d="M 855.0 214.0 L 855.0 255.0 L 590.0 255.0 L 590.0 296.0" fill="none" stroke="#111111" stroke-width="1.4"/><polygon points="590.0,296.0 584.6,287.0 595.4,287.0" fill="#111111" stroke="none" stroke-width="1.4"/><polygon points="855.0,214.0 860.4,223.0 849.6,223.0" fill="#111111" stroke="none" stroke-width="1.4"/><path d="M 310.0 358.0 L 310.0 370.0 L 155.0 370.0 L 155.0 382.0" fill="none" stroke="#111111" stroke-width="1.4"/><polygon points="155.0,382.0 149.6,373.0 160.4,373.0" fill="#111111" stroke="none" stroke-width="1.4"/><path d="M 610.0 358.0 L 610.0 370.0 L 859.0 370.0 L 859.0 382.0" fill="none" stroke="#111111" stroke-width="1.4"/><polygon points="859.0,382.0 853.6,373.0 864.4,373.0" fill="#111111" stroke="none" stroke-width="1.4"/><path d="M 255.0 542.0 L 255.0 586.0 L 155.0 586.0 L 155.0 630.0" fill="none" stroke="#111111" stroke-width="1.4"/><polygon points="155.0,630.0 149.6,621.0 160.4,621.0" fill="#111111" stroke="none" stroke-width="1.4"/><polygon points="255.0,542.0 260.4,551.0 249.6,551.0" fill="#111111" stroke="none" stroke-width="1.4"/><path d="M 455.0 542.0 L 455.0 586.0 L 606.0 586.0 L 606.0 630.0" fill="none" stroke="#111111" stroke-width="1.4"/><polygon points="606.0,630.0 600.6,621.0 611.4,621.0" fill="#111111" stroke="none" stroke-width="1.4"/><polygon points="455.0,542.0 460.4,551.0 449.6,551.0" fill="#111111" stroke="none" stroke-width="1.4"/><path d="M 719.0 542.0 L 719.0 586.0 L 726.0 586.0 L 726.0 630.0" fill="none" stroke="#111111" stroke-width="1.4"/><polygon points="726.0,630.0 720.6,621.0 731.4,621.0" fill="#111111" stroke="none" stroke-width="1.4"/><polygon points="719.0,542.0 724.4,551.0 713.6,551.0" fill="#111111" stroke="none" stroke-width="1.4"/><path d="M 860.0 462.0 L 950.0 462.0" fill="none" stroke="#111111" stroke-width="1.4" stroke-dasharray="6 4"/><polygon points="950.0,462.0 941.0,467.4 941.0,456.6" fill="#111111" stroke="none" stroke-width="1.4"/><polygon points="860.0,462.0 869.0,456.6 869.0,467.4" fill="#111111" stroke="none" stroke-width="1.4"/><path d="M 550.0 462.0 L 910.0 462.0 L 910.0 720.0 L 1050.0 720.0" fill="none" stroke="#111111" stroke-width="1.4" stroke-dasharray="6 4"/><polygon points="1050.0,720.0 1041.0,725.4 1041.0,714.6" fill="#111111" stroke="none" stroke-width="1.4"/><rect x="196.6" y="229.1" width="116.8" height="13.7" rx="2" fill="#FFFFFF" stroke="none" stroke-width="0"/><text x="255.0" y="239.0" font-family="Arial, Helvetica, sans-serif" font-size="9.5" font-weight="normal" fill="#111111" text-anchor="middle">HTTPS - session cookie</text><rect x="204.2" y="240.1" width="101.7" height="13.7" rx="2" fill="#FFFFFF" stroke="none" stroke-width="0"/><text x="255.0" y="250.0" font-family="Arial, Helvetica, sans-serif" font-size="9.5" font-weight="normal" fill="#111111" text-anchor="middle">Inertia page visits</text><rect x="414.1" y="229.1" width="106.7" height="13.7" rx="2" fill="#FFFFFF" stroke="none" stroke-width="0"/><text x="467.5" y="239.0" font-family="Arial, Helvetica, sans-serif" font-size="9.5" font-weight="normal" fill="#111111" text-anchor="middle">HTTPS - Bearer token</text><rect x="441.8" y="240.1" width="51.3" height="13.7" rx="2" fill="#FFFFFF" stroke="none" stroke-width="0"/><text x="467.5" y="250.0" font-family="Arial, Helvetica, sans-serif" font-size="9.5" font-weight="normal" fill="#111111" text-anchor="middle">(Sanctum)</text><rect x="674.2" y="229.1" width="96.6" height="13.7" rx="2" fill="#FFFFFF" stroke="none" stroke-width="0"/><text x="722.5" y="239.0" font-family="Arial, Helvetica, sans-serif" font-size="9.5" font-weight="normal" fill="#111111" text-anchor="middle">HTTPS - throttled,</text><rect x="679.2" y="240.1" width="86.6" height="13.7" rx="2" fill="#FFFFFF" stroke="none" stroke-width="0"/><text x="722.5" y="250.0" font-family="Arial, Helvetica, sans-serif" font-size="9.5" font-weight="normal" fill="#111111" text-anchor="middle">honeypot-guarded</text><rect x="184.2" y="354.1" width="96.6" height="13.7" rx="2" fill="#FFFFFF" stroke="none" stroke-width="0"/><text x="232.5" y="364.0" font-family="Arial, Helvetica, sans-serif" font-size="9.5" font-weight="normal" fill="#111111" text-anchor="middle">authorized request</text><rect x="686.2" y="354.1" width="96.6" height="13.7" rx="2" fill="#FFFFFF" stroke="none" stroke-width="0"/><text x="734.5" y="364.0" font-family="Arial, Helvetica, sans-serif" font-size="9.5" font-weight="normal" fill="#111111" text-anchor="middle">authorized request</text><rect x="171.8" y="562.1" width="66.4" height="13.7" rx="2" fill="#FFFFFF" stroke="none" stroke-width="0"/><text x="205.0" y="572.0" font-family="Arial, Helvetica, sans-serif" font-size="9.5" font-weight="normal" fill="#111111" text-anchor="middle">Eloquent ORM</text><rect x="164.2" y="573.1" width="81.5" height="13.7" rx="2" fill="#FFFFFF" stroke="none" stroke-width="0"/><text x="205.0" y="583.0" font-family="Arial, Helvetica, sans-serif" font-size="9.5" font-weight="normal" fill="#111111" text-anchor="middle">(tenant-scoped)</text><rect x="497.3" y="570.1" width="66.4" height="13.7" rx="2" fill="#FFFFFF" stroke="none" stroke-width="0"/><text x="530.5" y="580.0" font-family="Arial, Helvetica, sans-serif" font-size="9.5" font-weight="normal" fill="#111111" text-anchor="middle">private disk</text><rect x="686.8" y="562.1" width="71.5" height="13.7" rx="2" fill="#FFFFFF" stroke="none" stroke-width="0"/><text x="722.5" y="572.0" font-family="Arial, Helvetica, sans-serif" font-size="9.5" font-weight="normal" fill="#111111" text-anchor="middle">internal HTTP</text><rect x="681.7" y="573.1" width="81.5" height="13.7" rx="2" fill="#FFFFFF" stroke="none" stroke-width="0"/><text x="722.5" y="583.0" font-family="Arial, Helvetica, sans-serif" font-size="9.5" font-weight="normal" fill="#111111" text-anchor="middle">bounded timeout</text><rect x="844.1" y="436.1" width="121.8" height="13.7" rx="2" fill="#FFFFFF" stroke="none" stroke-width="0"/><text x="905.0" y="446.0" font-family="Arial, Helvetica, sans-serif" font-size="9.5" font-weight="normal" fill="#111111" text-anchor="middle">HTTPS, server-side only</text><rect x="818.9" y="447.1" width="172.2" height="13.7" rx="2" fill="#FFFFFF" stroke="none" stroke-width="0"/><text x="905.0" y="457.0" font-family="Arial, Helvetica, sans-serif" font-size="9.5" font-weight="normal" fill="#111111" text-anchor="middle">(API key never leaves the server)</text><rect x="854.1" y="465.1" width="111.7" height="13.7" rx="2" fill="#FFFFFF" stroke="none" stroke-width="0"/><text x="910.0" y="475.0" font-family="Arial, Helvetica, sans-serif" font-size="9.5" font-weight="normal" fill="#111111" text-anchor="middle">in-app / email / push</text><text x="950.0" y="768.0" font-family="Arial, Helvetica, sans-serif" font-size="9.5" font-weight="bold" fill="#111111" text-anchor="start">LEGEND</text><path d="M 950.0 780.0 L 972.0 780.0" fill="none" stroke="#111111" stroke-width="1.4"/><polygon points="972.0,780.0 963.0,785.4 963.0,774.6" fill="#111111" stroke="none" stroke-width="1.4"/><text x="980.0" y="783.5" font-family="Arial, Helvetica, sans-serif" font-size="9.5" font-weight="normal" fill="#5A5A5A" text-anchor="start">request / response</text><path d="M 950.0 797.0 L 972.0 797.0" fill="none" stroke="#111111" stroke-width="1.4" stroke-dasharray="6 4"/><polygon points="972.0,797.0 963.0,802.4 963.0,791.6" fill="#111111" stroke="none" stroke-width="1.4"/><text x="980.0" y="800.5" font-family="Arial, Helvetica, sans-serif" font-size="9.5" font-weight="normal" fill="#5A5A5A" text-anchor="start">external dependency</text><rect x="950.0" y="808.0" width="22.0" height="12.0" rx="2" fill="#FFFFFF" stroke="#111111" stroke-width="1.0" stroke-dasharray="3 3"/><text x="980.0" y="817.5" font-family="Arial, Helvetica, sans-serif" font-size="9.5" font-weight="normal" fill="#5A5A5A" text-anchor="start">outside the perimeter</text><text x="600.0" y="828.0" font-family="Arial, Helvetica, sans-serif" font-size="9.5" font-weight="normal" fill="#5A5A5A" text-anchor="middle">Graceful degradation: if the ML service is unreachable the analytics screens render the last stored run; if Gemini is unset every AI panel reports itself unconfigured. No core module blocks.</text></svg>