<svg xmlns="http://www.w3.org/2000/svg" width="1240" height="948" viewBox="0 0 1240 948"><rect x="0.0" y="0.0" width="1240.0" height="948.0" rx="0" fill="#FFFFFF" stroke="none" stroke-width="0"/><text x="620.0" y="28.0" font-family="Arial, Helvetica, sans-serif" font-size="16" font-weight="bold" fill="#111111" text-anchor="middle">Figure 3.31  Use Case Diagram of SYNAPSE</text><text x="620.0" y="46.0" font-family="Arial, Helvetica, sans-serif" font-size="11" font-weight="normal" fill="#5A5A5A" text-anchor="middle">Three built-in roles, the public applicant, and two system actors; the boundary is the tenant</text><rect x="300.0" y="80.0" width="640.0" height="800.0" rx="8" fill="#FFFFFF" stroke="#111111" stroke-width="1.4"/><text x="620.0" y="104.0" font-family="Arial, Helvetica, sans-serif" font-size="12" font-weight="bold" fill="#5A5A5A" text-anchor="middle">SYNAPSE  (within one organisation)</text><text x="322.0" y="128.0" font-family="Arial, Helvetica, sans-serif" font-size="9.5" font-weight="bold" fill="#5A5A5A" text-anchor="start">TALENT ACQUISITION</text><text x="322.0" y="272.0" font-family="Arial, Helvetica, sans-serif" font-size="9.5" font-weight="bold" fill="#5A5A5A" text-anchor="start">WORKFORCE OPERATIONS</text><text x="322.0" y="416.0" font-family="Arial, Helvetica, sans-serif" font-size="9.5" font-weight="bold" fill="#5A5A5A" text-anchor="start">TIME AND ATTENDANCE</text><text x="322.0" y="560.0" font-family="Arial, Helvetica, sans-serif" font-size="9.5" font-weight="bold" fill="#5A5A5A" text-anchor="start">DEVELOPMENT AND RECOGNITION</text><text x="322.0" y="704.0" font-family="Arial, Helvetica, sans-serif" font-size="9.5" font-weight="bold" fill="#5A5A5A" text-anchor="start">INTELLIGENCE</text><path d="M 300.0 894.0 H 928.0 L 940.0 906.0 V 928.0 H 300.0 Z" fill="#F4F4F4" stroke="#111111" stroke-width="1.0"/><path d="M 928.0 894.0 V 906.0 H 940.0" fill="none" stroke="#111111" stroke-width="1.0"/><text x="620.0" y="914.9" font-family="Arial, Helvetica, sans-serif" font-size="8.8" font-weight="normal" fill="#5A5A5A" text-anchor="middle">Every use case is additionally gated by one of the 73 named permissions; the three roles are default bundles, and a tenant may compose its own.</text><circle cx="130.0" cy="150.0" r="11.0" fill="#FFFFFF" stroke="#111111" stroke-width="1.4"/><path d="M 130.0 161.0 L 130.0 190.0" fill="none" stroke="#111111" stroke-width="1.4"/><path d="M 114.0 172.0 L 146.0 172.0" fill="none" stroke="#111111" stroke-width="1.4"/><path d="M 130.0 190.0 L 116.0 212.0" fill="none" stroke="#111111" stroke-width="1.4"/><path d="M 130.0 190.0 L 144.0 212.0" fill="none" stroke="#111111" stroke-width="1.4"/><text x="130.0" y="230.0" font-family="Arial, Helvetica, sans-serif" font-size="10.5" font-weight="bold" fill="#111111" text-anchor="middle">HR Manager</text><text x="130.0" y="243.0" font-family="Arial, Helvetica, sans-serif" font-size="9" font-weight="normal" fill="#5A5A5A" text-anchor="middle">owner - all permissions</text><circle cx="130.0" cy="400.0" r="11.0" fill="#FFFFFF" stroke="#111111" stroke-width="1.4"/><path d="M 130.0 411.0 L 130.0 440.0" fill="none" stroke="#111111" stroke-width="1.4"/><path d="M 114.0 422.0 L 146.0 422.0" fill="none" stroke="#111111" stroke-width="1.4"/><path d="M 130.0 440.0 L 116.0 462.0" fill="none" stroke="#111111" stroke-width="1.4"/><path d="M 130.0 440.0 L 144.0 462.0" fill="none" stroke="#111111" stroke-width="1.4"/><text x="130.0" y="480.0" font-family="Arial, Helvetica, sans-serif" font-size="10.5" font-weight="bold" fill="#111111" text-anchor="middle">Department Head</text><text x="130.0" y="493.0" font-family="Arial, Helvetica, sans-serif" font-size="9" font-weight="normal" fill="#5A5A5A" text-anchor="middle">supervisor</text><circle cx="130.0" cy="640.0" r="11.0" fill="#FFFFFF" stroke="#111111" stroke-width="1.4"/><path d="M 130.0 651.0 L 130.0 680.0" fill="none" stroke="#111111" stroke-width="1.4"/><path d="M 114.0 662.0 L 146.0 662.0" fill="none" stroke="#111111" stroke-width="1.4"/><path d="M 130.0 680.0 L 116.0 702.0" fill="none" stroke="#111111" stroke-width="1.4"/><path d="M 130.0 680.0 L 144.0 702.0" fill="none" stroke="#111111" stroke-width="1.4"/><text x="130.0" y="720.0" font-family="Arial, Helvetica, sans-serif" font-size="10.5" font-weight="bold" fill="#111111" text-anchor="middle">Employee (Staff)</text><text x="130.0" y="733.0" font-family="Arial, Helvetica, sans-serif" font-size="9" font-weight="normal" fill="#5A5A5A" text-anchor="middle">web + mobile</text><circle cx="130.0" cy="810.0" r="11.0" fill="#FFFFFF" stroke="#111111" stroke-width="1.4"/><path d="M 130.0 821.0 L 130.0 850.0" fill="none" stroke="#111111" stroke-width="1.4"/><path d="M 114.0 832.0 L 146.0 832.0" fill="none" stroke="#111111" stroke-width="1.4"/><path d="M 130.0 850.0 L 116.0 872.0" fill="none" stroke="#111111" stroke-width="1.4"/><path d="M 130.0 850.0 L 144.0 872.0" fill="none" stroke="#111111" stroke-width="1.4"/><text x="130.0" y="890.0" font-family="Arial, Helvetica, sans-serif" font-size="10.5" font-weight="bold" fill="#111111" text-anchor="middle">Job Applicant</text><text x="130.0" y="903.0" font-family="Arial, Helvetica, sans-serif" font-size="9" font-weight="normal" fill="#5A5A5A" text-anchor="middle">unauthenticated</text><circle cx="1110.0" cy="250.0" r="11.0" fill="#FFFFFF" stroke="#111111" stroke-width="1.4"/><path d="M 1110.0 261.0 L 1110.0 290.0" fill="none" stroke="#111111" stroke-width="1.4"/><path d="M 1094.0 272.0 L 1126.0 272.0" fill="none" stroke="#111111" stroke-width="1.4"/><path d="M 1110.0 290.0 L 1096.0 312.0" fill="none" stroke="#111111" stroke-width="1.4"/><path d="M 1110.0 290.0 L 1124.0 312.0" fill="none" stroke="#111111" stroke-width="1.4"/><text x="1110.0" y="330.0" font-family="Arial, Helvetica, sans-serif" font-size="10.5" font-weight="bold" fill="#111111" text-anchor="middle">ML Inference</text><text x="1110.0" y="343.0" font-family="Arial, Helvetica, sans-serif" font-size="9" font-weight="normal" fill="#5A5A5A" text-anchor="middle">system actor</text><circle cx="1110.0" cy="520.0" r="11.0" fill="#FFFFFF" stroke="#111111" stroke-width="1.4"/><path d="M 1110.0 531.0 L 1110.0 560.0" fill="none" stroke="#111111" stroke-width="1.4"/><path d="M 1094.0 542.0 L 1126.0 542.0" fill="none" stroke="#111111" stroke-width="1.4"/><path d="M 1110.0 560.0 L 1096.0 582.0" fill="none" stroke="#111111" stroke-width="1.4"/><path d="M 1110.0 560.0 L 1124.0 582.0" fill="none" stroke="#111111" stroke-width="1.4"/><text x="1110.0" y="600.0" font-family="Arial, Helvetica, sans-serif" font-size="10.5" font-weight="bold" fill="#111111" text-anchor="middle">Gemini API</text><text x="1110.0" y="613.0" font-family="Arial, Helvetica, sans-serif" font-size="9" font-weight="normal" fill="#5A5A5A" text-anchor="middle">system actor</text><circle cx="1110.0" cy="760.0" r="11.0" fill="#FFFFFF" stroke="#111111" stroke-width="1.4"/><path d="M 1110.0 771.0 L 1110.0 800.0" fill="none" stroke="#111111" stroke-width="1.4"/><path d="M 1094.0 782.0 L 1126.0 782.0" fill="none" stroke="#111111" stroke-width="1.4"/><path d="M 1110.0 800.0 L 1096.0 822.0" fill="none" stroke="#111111" stroke-width="1.4"/><path d="M 1110.0 800.0 L 1124.0 822.0" fill="none" stroke="#111111" stroke-width="1.4"/><text x="1110.0" y="840.0" font-family="Arial, Helvetica, sans-serif" font-size="10.5" font-weight="bold" fill="#111111" text-anchor="middle">Mail / Push</text><text x="1110.0" y="853.0" font-family="Arial, Helvetica, sans-serif" font-size="9" font-weight="normal" fill="#5A5A5A" text-anchor="middle">system actor</text><rect x="310.0" y="135.0" width="300.0" height="38.0" rx="19.0" fill="#FFFFFF" stroke="#111111" stroke-width="1.0"/><text x="460.0" y="158.0" font-family="Arial, Helvetica, sans-serif" font-size="9.8" font-weight="normal" fill="#111111" text-anchor="middle">Publish job posting</text><rect x="640.0" y="135.0" width="300.0" height="38.0" rx="19.0" fill="#FFFFFF" stroke="#111111" stroke-width="1.0"/><text x="790.0" y="158.0" font-family="Arial, Helvetica, sans-serif" font-size="9.8" font-weight="normal" fill="#111111" text-anchor="middle">Submit application (public)</text><rect x="310.0" y="181.0" width="300.0" height="38.0" rx="19.0" fill="#FFFFFF" stroke="#111111" stroke-width="1.0"/><text x="460.0" y="204.0" font-family="Arial, Helvetica, sans-serif" font-size="9.8" font-weight="normal" fill="#111111" text-anchor="middle">Review ranked candidates</text><rect x="640.0" y="181.0" width="300.0" height="38.0" rx="19.0" fill="#FFFFFF" stroke="#111111" stroke-width="1.0"/><text x="790.0" y="204.0" font-family="Arial, Helvetica, sans-serif" font-size="9.8" font-weight="normal" fill="#111111" text-anchor="middle">Schedule and score interview</text><rect x="310.0" y="227.0" width="300.0" height="38.0" rx="19.0" fill="#FFFFFF" stroke="#111111" stroke-width="1.0"/><text x="460.0" y="250.0" font-family="Arial, Helvetica, sans-serif" font-size="9.8" font-weight="normal" fill="#111111" text-anchor="middle">Hire applicant (bridge)</text><rect x="310.0" y="279.0" width="300.0" height="38.0" rx="19.0" fill="#FFFFFF" stroke="#111111" stroke-width="1.0"/><text x="460.0" y="302.0" font-family="Arial, Helvetica, sans-serif" font-size="9.8" font-weight="normal" fill="#111111" text-anchor="middle">Maintain 201 file</text><rect x="640.0" y="279.0" width="300.0" height="38.0" rx="19.0" fill="#FFFFFF" stroke="#111111" stroke-width="1.0"/><text x="790.0" y="302.0" font-family="Arial, Helvetica, sans-serif" font-size="9.8" font-weight="normal" fill="#111111" text-anchor="middle">Invite employee to the app</text><rect x="310.0" y="325.0" width="300.0" height="38.0" rx="19.0" fill="#FFFFFF" stroke="#111111" stroke-width="1.0"/><text x="460.0" y="348.0" font-family="Arial, Helvetica, sans-serif" font-size="9.8" font-weight="normal" fill="#111111" text-anchor="middle">Run onboarding checklist</text><rect x="640.0" y="325.0" width="300.0" height="38.0" rx="19.0" fill="#FFFFFF" stroke="#111111" stroke-width="1.0"/><text x="790.0" y="348.0" font-family="Arial, Helvetica, sans-serif" font-size="9.8" font-weight="normal" fill="#111111" text-anchor="middle">Complete offboarding clearance</text><rect x="310.0" y="423.0" width="300.0" height="38.0" rx="19.0" fill="#FFFFFF" stroke="#111111" stroke-width="1.0"/><text x="460.0" y="446.0" font-family="Arial, Helvetica, sans-serif" font-size="9.8" font-weight="normal" fill="#111111" text-anchor="middle">Clock in / out (GPS + selfie)</text><rect x="640.0" y="423.0" width="300.0" height="38.0" rx="19.0" fill="#FFFFFF" stroke="#111111" stroke-width="1.0"/><text x="790.0" y="446.0" font-family="Arial, Helvetica, sans-serif" font-size="9.8" font-weight="normal" fill="#111111" text-anchor="middle">Correct and approve DTR</text><rect x="310.0" y="469.0" width="300.0" height="38.0" rx="19.0" fill="#FFFFFF" stroke="#111111" stroke-width="1.0"/><text x="460.0" y="492.0" font-family="Arial, Helvetica, sans-serif" font-size="9.8" font-weight="normal" fill="#111111" text-anchor="middle">File leave request</text><rect x="640.0" y="469.0" width="300.0" height="38.0" rx="19.0" fill="#FFFFFF" stroke="#111111" stroke-width="1.0"/><text x="790.0" y="492.0" font-family="Arial, Helvetica, sans-serif" font-size="9.8" font-weight="normal" fill="#111111" text-anchor="middle">Approve / reject leave</text><rect x="310.0" y="567.0" width="300.0" height="38.0" rx="19.0" fill="#FFFFFF" stroke="#111111" stroke-width="1.0"/><text x="460.0" y="590.0" font-family="Arial, Helvetica, sans-serif" font-size="9.8" font-weight="normal" fill="#111111" text-anchor="middle">Conduct appraisal</text><rect x="640.0" y="567.0" width="300.0" height="38.0" rx="19.0" fill="#FFFFFF" stroke="#111111" stroke-width="1.0"/><text x="790.0" y="590.0" font-family="Arial, Helvetica, sans-serif" font-size="9.8" font-weight="normal" fill="#111111" text-anchor="middle">Calibrate a review cycle</text><rect x="310.0" y="613.0" width="300.0" height="38.0" rx="19.0" fill="#FFFFFF" stroke="#111111" stroke-width="1.0"/><text x="460.0" y="636.0" font-family="Arial, Helvetica, sans-serif" font-size="9.8" font-weight="normal" fill="#111111" text-anchor="middle">Enrol in training</text><rect x="640.0" y="613.0" width="300.0" height="38.0" rx="19.0" fill="#FFFFFF" stroke="#111111" stroke-width="1.0"/><text x="790.0" y="636.0" font-family="Arial, Helvetica, sans-serif" font-size="9.8" font-weight="normal" fill="#111111" text-anchor="middle">Nominate and grant an award</text><rect x="310.0" y="711.0" width="300.0" height="38.0" rx="19.0" fill="#FFFFFF" stroke="#111111" stroke-width="1.0"/><text x="460.0" y="734.0" font-family="Arial, Helvetica, sans-serif" font-size="9.8" font-weight="normal" fill="#111111" text-anchor="middle">Run predictive assessment</text><rect x="640.0" y="711.0" width="300.0" height="38.0" rx="19.0" fill="#FFFFFF" stroke="#111111" stroke-width="1.0"/><text x="790.0" y="734.0" font-family="Arial, Helvetica, sans-serif" font-size="9.8" font-weight="normal" fill="#111111" text-anchor="middle">Read AI insight panel</text><rect x="310.0" y="757.0" width="300.0" height="38.0" rx="19.0" fill="#FFFFFF" stroke="#111111" stroke-width="1.0"/><text x="460.0" y="780.0" font-family="Arial, Helvetica, sans-serif" font-size="9.8" font-weight="normal" fill="#111111" text-anchor="middle">Converse with the HR assistant</text><rect x="640.0" y="757.0" width="300.0" height="38.0" rx="19.0" fill="#FFFFFF" stroke="#111111" stroke-width="1.0"/><text x="790.0" y="780.0" font-family="Arial, Helvetica, sans-serif" font-size="9.8" font-weight="normal" fill="#111111" text-anchor="middle">Generate report and export</text><path d="M 160.0 220.0 L 310.0 154.0" fill="none" stroke="#111111" stroke-width="1.0"/><path d="M 160.0 220.0 L 310.0 200.0" fill="none" stroke="#111111" stroke-width="1.0"/><path d="M 160.0 220.0 L 310.0 246.0" fill="none" stroke="#111111" stroke-width="1.0"/><path d="M 160.0 220.0 L 310.0 298.0" fill="none" stroke="#111111" stroke-width="1.0"/><path d="M 160.0 220.0 L 640.0 298.0" fill="none" stroke="#111111" stroke-width="1.0"/><path d="M 160.0 220.0 L 310.0 344.0" fill="none" stroke="#111111" stroke-width="1.0"/><path d="M 160.0 220.0 L 640.0 344.0" fill="none" stroke="#111111" stroke-width="1.0"/><path d="M 160.0 220.0 L 640.0 442.0" fill="none" stroke="#111111" stroke-width="1.0"/><path d="M 160.0 220.0 L 640.0 488.0" fill="none" stroke="#111111" stroke-width="1.0"/><path d="M 160.0 220.0 L 640.0 586.0" fill="none" stroke="#111111" stroke-width="1.0"/><path d="M 160.0 220.0 L 640.0 632.0" fill="none" stroke="#111111" stroke-width="1.0"/><path d="M 160.0 220.0 L 310.0 730.0" fill="none" stroke="#111111" stroke-width="1.0"/><path d="M 160.0 220.0 L 640.0 776.0" fill="none" stroke="#111111" stroke-width="1.0"/><path d="M 160.0 220.0 L 310.0 632.0" fill="none" stroke="#111111" stroke-width="1.0"/><path d="M 160.0 470.0 L 640.0 200.0" fill="none" stroke="#111111" stroke-width="1.0"/><path d="M 160.0 470.0 L 640.0 488.0" fill="none" stroke="#111111" stroke-width="1.0"/><path d="M 160.0 470.0 L 310.0 586.0" fill="none" stroke="#111111" stroke-width="1.0"/><path d="M 160.0 470.0 L 640.0 730.0" fill="none" stroke="#111111" stroke-width="1.0"/><path d="M 160.0 470.0 L 640.0 442.0" fill="none" stroke="#111111" stroke-width="1.0"/><path d="M 160.0 710.0 L 310.0 442.0" fill="none" stroke="#111111" stroke-width="1.0"/><path d="M 160.0 710.0 L 310.0 488.0" fill="none" stroke="#111111" stroke-width="1.0"/><path d="M 160.0 710.0 L 310.0 776.0" fill="none" stroke="#111111" stroke-width="1.0"/><path d="M 160.0 880.0 L 640.0 154.0" fill="none" stroke="#111111" stroke-width="1.0"/><path d="M 1080.0 320.0 L 610.0 730.0" fill="none" stroke="#111111" stroke-width="1.0"/><path d="M 1080.0 590.0 L 940.0 730.0" fill="none" stroke="#111111" stroke-width="1.0"/><path d="M 1080.0 590.0 L 610.0 776.0" fill="none" stroke="#111111" stroke-width="1.0"/><path d="M 1080.0 590.0 L 610.0 200.0" fill="none" stroke="#111111" stroke-width="1.0"/><path d="M 1080.0 830.0 L 940.0 488.0" fill="none" stroke="#111111" stroke-width="1.0"/><path d="M 1080.0 830.0 L 940.0 298.0" fill="none" stroke="#111111" stroke-width="1.0"/></svg>